<?xml version="1.0" encoding="utf-8"?>
<!-- Generator: Adobe Illustrator 19.2.1, SVG Export Plug-In . SVG Version: 6.00 Build 0)  -->
<svg version="1.1" id="layer" xmlns="http://www.w3.org/2000/svg" xmlns:xlink="http://www.w3.org/1999/xlink" x="0px" y="0px"
	 viewBox="0 0 652 450" style="enable-background:new 0 0 652 652;" xml:space="default">
<style type="text/css">
	.st0{fill:#E23C52;}
</style>
<path class="st0" d="M256.2,308.3v-57.7h-15.8c-0.5,0-1-0.2-1.4-0.6c-0.4-0.4-0.6-0.9-0.6-1.4v-8.5c-0.1-1,0.7-1.9,1.7-2
	c0.1,0,0.2,0,0.2,0h45.1c1-0.1,1.9,0.7,2,1.7c0,0.1,0,0.2,0,0.2v8.4c0,0.5-0.2,1-0.6,1.4c-0.4,0.4-0.9,0.6-1.4,0.6h-15.9v57.7
	c0,0.5-0.2,1-0.6,1.3c-0.3,0.4-0.8,0.6-1.3,0.6h-9.5c-0.5,0-1-0.2-1.4-0.6C256.4,309.3,256.2,308.8,256.2,308.3z"/>
<path class="st0" d="M294,310.3c-0.7,0.1-1.3-0.3-1.7-0.8c-0.4-0.6-0.4-1.3,0-1.8l31.9-69.2c0.3-0.7,1-1.1,1.8-1.1h1
	c0.8,0,1.5,0.4,1.8,1.1l31.7,69.2c0.4,0.6,0.4,1.3,0,1.8c-0.4,0.6-1,0.9-1.7,0.8h-9c-1.3,0-2.5-0.9-3-2.1l-5.1-11.4h-30.8l-5,11.4
	c-0.4,1.3-1.6,2.2-3,2.1L294,310.3z M316,285.7h20.7l-10.3-22.6H326L316,285.7z"/>
<path class="st0" d="M377.2,308.3v-68.1c0-0.5,0.2-1,0.6-1.3c0.4-0.4,0.9-0.6,1.4-0.6h9.5c0.5,0,1,0.2,1.3,0.6
	c0.4,0.3,0.6,0.8,0.6,1.3v68.1c0,0.5-0.2,1-0.6,1.3c-0.3,0.4-0.8,0.6-1.3,0.6h-9.5c-0.5,0-1-0.2-1.4-0.6
	C377.4,309.3,377.2,308.8,377.2,308.3z"/>
<path class="st0" d="M416.8,308.3v-68.1c-0.1-1,0.7-1.9,1.7-2c0.1,0,0.2,0,0.2,0h9.5c0.5,0,1,0.2,1.4,0.6c0.4,0.4,0.6,0.8,0.6,1.3
	V298h26.2c1-0.1,1.9,0.7,2,1.7c0,0.1,0,0.2,0,0.2v8.4c0.1,1-0.7,1.9-1.7,2c-0.1,0-0.2,0-0.2,0h-37.6c-1,0.1-1.9-0.7-2-1.7
	C416.8,308.5,416.8,308.4,416.8,308.3L416.8,308.3z"/>
<path class="st0" d="M481,300.6c-7-6.9-10.9-16.3-10.7-26.2c-0.2-9.9,3.7-19.4,10.7-26.3c14.5-14.5,37.9-14.5,52.4,0c0,0,0,0,0,0
	c7.1,6.9,11,16.4,10.8,26.3c-0.1,20.5-16.8,37-37.3,36.9C497.2,311.3,487.9,307.4,481,300.6z M490.6,257.6c-4.5,4.4-7,10.5-6.9,16.8
	c0,13,10.6,23.6,23.6,23.6c13,0,23.6-10.6,23.6-23.6c-0.1-13-10.6-23.6-23.6-23.7C500.9,250.6,494.9,253.1,490.6,257.6z"/>
<path class="st0" d="M565.1,308.3v-68.1c-0.1-1,0.7-1.9,1.7-2c0.1,0,0.2,0,0.2,0h29.5c5.9-0.1,11.7,2.3,15.8,6.5
	c4.3,4.1,6.7,9.7,6.6,15.6c0.1,4.5-1.4,9-4.2,12.6c-2.8,3.7-6.7,6.6-11.1,8.3l14.1,26c0.4,0.6,0.4,1.4,0,2c-0.4,0.7-1.1,1.1-1.8,1
	h-10.8c-0.7,0-1.3-0.3-1.6-0.9l-13.7-27.1h-11.4v26.1c0,0.5-0.2,1-0.6,1.3c-0.4,0.4-0.9,0.6-1.4,0.6h-9.5c-1,0.1-1.9-0.7-2-1.7
	C565.1,308.5,565.1,308.4,565.1,308.3z M578.6,271.1h16.8c2.7,0,5.2-1.1,7.1-3.1c2-1.9,3.1-4.6,3-7.4c0-2.7-1.1-5.3-3-7.1
	c-1.9-1.9-4.4-2.9-7.1-2.9h-16.8V271.1z"/>
<path class="st0" d="M247,334.9c0-1,0.8-1.8,1.8-1.8h21.2c11.8,0,19.9,7.6,19.9,17.8c-0.2,6.5-3.8,12.4-9.5,15.5
	c5.1,2.1,11.6,6.9,11.6,15.8c0,10.9-8.6,18.7-21.1,18.7h-22.1c-1,0-1.8-0.8-1.8-1.8L247,334.9z M271.8,394.4
	c6.6,0.1,12.1-5.1,12.2-11.7c0-0.2,0-0.4,0-0.6c0-6.9-6.3-11.9-13.9-11.9h-16v24.2H271.8z M270.1,363.5c7.4,0,11.6-5.3,11.6-12.1
	s-4.2-11.6-11.6-11.6h-15.8v23.7L270.1,363.5z"/>
<path class="st0" d="M307.5,334.9c0-1,0.8-1.8,1.8-1.8h25.1c11.5-0.2,21,9,21.1,20.5c0,0,0,0.1,0,0.1c0,8.9-5.9,16.4-14.3,19.8
	l13.3,24.6c0.5,0.9,0.3,2-0.6,2.5c-0.3,0.2-0.7,0.3-1,0.3h-4.8c-0.6,0-1.2-0.3-1.5-0.9l-12.9-25.7h-18.4v24.7c0,1-0.8,1.8-1.8,1.8
	h-4c-1,0-1.8-0.8-1.8-1.8V334.9z M334,368c7.7,0,13.9-6.2,13.9-13.9s-6.2-13.9-13.9-13.9l0,0h-18.8V368L334,368z"/>
<path class="st0" d="M362.3,398.4l29.5-65.2c0.3-0.7,0.9-1.1,1.6-1.1h1c0.7,0,1.3,0.4,1.6,1.1l29.3,65.2c0.5,0.8,0.1,1.9-0.7,2.3
	c-0.3,0.2-0.6,0.2-0.9,0.2h-3.9c-0.7,0-1.3-0.4-1.6-1.1l-7.2-16h-34.4l-7.1,16c-0.3,0.6-0.9,1.1-1.6,1.1H364
	c-0.9,0.1-1.8-0.6-1.9-1.6C362.1,399,362.2,398.7,362.3,398.4z M408.4,377.8c-4.8-10.6-9.4-21.2-14.2-31.8h-0.8l-14.2,31.8H408.4z"
	/>
<path class="st0" d="M435.9,333.9c0-1,0.9-1.8,1.8-1.8h2.5l43.7,54.4h0.2V335c0-1,0.8-1.8,1.8-1.8h3.4c1,0,1.8,0.8,1.8,1.8v65.2
	c0,1-0.9,1.8-1.8,1.8h-1.8l-44.5-55.5H443v52.7c0,1-0.8,1.8-1.8,1.8h-3.4c-1,0-1.8-0.8-1.8-1.8V333.9z"/>
<path class="st0" d="M510.9,334.9c0-1,0.8-1.8,1.8-1.8h21.7c18.7,0,33.9,15.2,33.9,33.9s-15.2,33.9-33.9,33.9l0,0h-21.7
	c-1,0-1.8-0.9-1.8-1.8L510.9,334.9z M532.8,394.2c15.9,0,27.4-11.3,27.4-27.3s-11.5-27.2-27.4-27.2h-14.5v54.6L532.8,394.2z"/>
<path class="st0" d="M578.9,390.7c0.5-0.6,1-1.3,1.5-1.8c1-1.3,2-2,3.4-0.9c0.7,0.6,7.8,7.4,16.4,7.4c7.9,0,12.9-4.9,12.9-10.7
	c0-6.7-5.8-10.7-17-15.3c-10.7-4.6-17-9-17-20.1c0-6.6,5.2-17.3,20.6-17.3c5.9,0.1,11.6,1.8,16.6,4.9c1,0.6,1.4,1.9,0.8,2.9
	c-0.1,0.1-0.2,0.3-0.3,0.4c-0.4,0.6-0.8,1.3-1.2,1.8c-0.5,1.1-1.8,1.6-2.9,1.2c-0.2-0.1-0.4-0.2-0.5-0.3c-0.7-0.4-6.8-4.5-12.7-4.5
	c-10.3,0-13.4,6.6-13.4,10.7c0,6.5,4.9,10.3,13.1,13.7c13.1,5.3,21.5,10.3,21.5,21.5c0,10.1-9.6,17.4-20.9,17.4
	c-7.5-0.1-14.8-2.9-20.4-7.9c-1-0.6-1.4-1.9-0.8-2.9C578.7,391,578.8,390.9,578.9,390.7z"/>
<path class="st0" d="M194.2,268.4c-0.1-0.2-0.1-0.3-0.2-0.4c-0.1-0.2-0.2-0.3-0.3-0.5c-0.1-0.2-0.3-0.4-0.4-0.6l-0.1-0.1
	c-0.2-0.2-0.4-0.4-0.6-0.5v-0.1L153.1,233l0,0c-0.3-0.2-0.5-0.4-0.8-0.6c-0.1-0.1-0.3-0.2-0.4-0.2c-0.2-0.1-0.3-0.2-0.5-0.2
	l-0.4-0.1l-0.5-0.1H150h-0.6h-41.8H66h-0.6c-0.1,0-0.3,0-0.4,0c-0.2,0-0.3,0.1-0.5,0.1c-0.2,0-0.3,0.1-0.4,0.1
	c-0.6,0.2-1.2,0.5-1.8,1l-39.4,32.8l0,0c-0.6,0.5-1.1,1.1-1.4,1.7c-0.1,0.2-0.2,0.3-0.2,0.5c-0.3,0.7-0.5,1.5-0.5,2.2v68.2
	c0,1.7,0.7,3.4,2,4.5l81.1,68.2c2.1,1.8,5.2,1.8,7.4,0l81.3-68.7c1.3-1.1,2-2.7,2-4.4v-67.3C194.6,269.9,194.5,269.1,194.2,268.4z
	 M113.4,243h30.1v28.4l-30.1,24.1V243z M71.7,243h30.1v52.5l-30.1-24.1V243z M32.3,272.8l27.9-23.2v21.9l-27.9,23.6V272.8z
	 M107.6,399l-18.2-15.3c9.9-9.7,25.8-9.5,35.5,0.5c0,0,0.1,0.1,0.1,0.1L107.6,399z M183.2,335.2l-49.3,41.7
	c-13.8-14.8-37-15.7-51.8-2c-0.5,0.5-1,0.9-1.4,1.4l-48.3-40.5v-25.6l33.8-28.5L104,312c2.1,1.7,5.1,1.7,7.2,0l37.9-30.4l34,28.6
	L183.2,335.2z M183.2,295.1L155,271.5v-21.8l28.1,23.6L183.2,295.1z"/>
</svg>
